{"asset":{"generator":"3D Builder","version":"2.0"},"scene":0,"scenes":[{"nodes":[0,1,2,3,4,5,6,7,8]}],"nodes":[{"mesh":0,"matrix":[1,0,0,0,0,-1.1920928955078125E-7,-0.99999988079071045,0,0,0.99999988079071045,-1.1920928955078125E-7,0,0,2.4999997615814209,-2.9802322387695313E-7,1]},{"mesh":1,"matrix":[1,0,0,0,0,-1.1920928955078125E-7,-0.99999988079071045,0,0,0.99999988079071045,-1.1920928955078125E-7,0,0,2.4999997615814209,-2.9802322387695313E-7,1]},{"mesh":2,"matrix":[1,0,0,0,0,-1.1920928955078125E-7,-0.99999988079071045,0,0,0.99999988079071045,-1.1920928955078125E-7,0,0,2.4999997615814209,-2.9802322387695313E-7,1]},{"mesh":3,"matrix":[1,0,0,0,0,-1.1920928955078125E-7,-0.99999988079071045,0,0,0.99999988079071045,-1.1920928955078125E-7,0,0,2.4999997615814209,-2.9802322387695313E-7,1]},{"mesh":4,"matrix":[1,0,0,0,0,-1.1920928955078125E-7,-0.99999988079071045,0,0,0.99999988079071045,-1.1920928955078125E-7,0,0,2.4999997615814209,-2.9802322387695313E-7,1]},{"mesh":5,"matrix":[1,0,0,0,0,-1.1920928955078125E-7,-0.99999988079071045,0,0,0.99999988079071045,-1.1920928955078125E-7,0,0,2.4999997615814209,-2.9802322387695313E-7,1]},{"mesh":6,"matrix":[1,0,0,0,0,-1.1920928955078125E-7,-0.99999988079071045,0,0,0.99999988079071045,-1.1920928955078125E-7,0,0,2.4999997615814209,-2.9802322387695313E-7,1]},{"mesh":7,"matrix":[1,0,0,0,0,-1.1920928955078125E-7,-0.99999988079071045,0,0,0.99999988079071045,-1.1920928955078125E-7,0,0,2.4999997615814209,-2.9802322387695313E-7,1]},{"mesh":8,"matrix":[1,0,0,0,0,-1.1920928955078125E-7,-0.99999988079071045,0,0,0.99999988079071045,-1.1920928955078125E-7,0,0,2.4999997615814209,-2.9802322387695313E-7,1]}],"meshes":[{"primitives":[{"attributes":{"POSITION":0,"TEXCOORD_0":12},"mode":4,"indices":24,"material":0},{"attributes":{"POSITION":1,"TEXCOORD_0":13},"mode":4,"indices":25,"material":1},{"attributes":{"POSITION":2,"TEXCOORD_0":14},"mode":4,"indices":26,"material":2},{"attributes":{"POSITION":3,"TEXCOORD_0":15},"mode":4,"indices":27,"material":0},{"attributes":{"POSITION":4,"TEXCOORD_0":16},"mode":4,"indices":28,"material":3},{"attributes":{"POSITION":5,"TEXCOORD_0":17},"mode":4,"indices":29,"material":4},{"attributes":{"POSITION":6,"TEXCOORD_0":18},"mode":4,"indices":30,"material":5},{"attributes":{"POSITION":7,"TEXCOORD_0":19},"mode":4,"indices":31,"material":6},{"attributes":{"POSITION":8,"TEXCOORD_0":20},"mode":4,"indices":32,"material":7},{"attributes":{"POSITION":9,"TEXCOORD_0":21},"mode":4,"indices":33,"material":8},{"attributes":{"POSITION":10,"TEXCOORD_0":22},"mode":4,"indices":34,"material":5},{"attributes":{"POSITION":11,"TEXCOORD_0":23},"mode":4,"indices":35,"material":5}]},{"primitives":[{"attributes":{"POSITION":36,"TEXCOORD_0":37,"COLOR_0":38},"mode":4,"indices":39,"material":9}]},{"primitives":[{"attributes":{"POSITION":40,"TEXCOORD_0":52},"mode":4,"indices":64,"material":10},{"attributes":{"POSITION":41,"TEXCOORD_0":53},"mode":4,"indices":65,"material":11},{"attributes":{"POSITION":42,"TEXCOORD_0":54},"mode":4,"indices":66,"material":12},{"attributes":{"POSITION":43,"TEXCOORD_0":55},"mode":4,"indices":67,"material":13},{"attributes":{"POSITION":44,"TEXCOORD_0":56},"mode":4,"indices":68,"material":14},{"attributes":{"POSITION":45,"TEXCOORD_0":57},"mode":4,"indices":69,"material":15},{"attributes":{"POSITION":46,"TEXCOORD_0":58},"mode":4,"indices":70,"material":14},{"attributes":{"POSITION":47,"TEXCOORD_0":59},"mode":4,"indices":71,"material":16},{"attributes":{"POSITION":48,"TEXCOORD_0":60},"mode":4,"indices":72,"material":17},{"attributes":{"POSITION":49,"TEXCOORD_0":61},"mode":4,"indices":73,"material":18},{"attributes":{"POSITION":50,"TEXCOORD_0":62},"mode":4,"indices":74,"material":19},{"attributes":{"POSITION":51,"TEXCOORD_0":63},"mode":4,"indices":75,"material":5}]},{"primitives":[{"attributes":{"POSITION":76,"TEXCOORD_0":77,"COLOR_0":78},"mode":4,"indices":79,"material":9}]},{"primitives":[{"attributes":{"POSITION":80,"TEXCOORD_0":86},"mode":4,"indices":92,"material":20},{"attributes":{"POSITION":81,"TEXCOORD_0":87},"mode":4,"indices":93,"material":21},{"attributes":{"POSITION":82,"TEXCOORD_0":88},"mode":4,"indices":94,"material":22},{"attributes":{"POSITION":83,"TEXCOORD_0":89},"mode":4,"indices":95,"material":23},{"attributes":{"POSITION":84,"TEXCOORD_0":90},"mode":4,"indices":96,"material":24},{"attributes":{"POSITION":85,"TEXCOORD_0":91},"mode":4,"indices":97,"material":24}]},{"primitives":[{"attributes":{"POSITION":98,"TEXCOORD_0":120},"mode":4,"indices":142,"material":25},{"attributes":{"POSITION":99,"TEXCOORD_0":121},"mode":4,"indices":143,"material":26},{"attributes":{"POSITION":100,"TEXCOORD_0":122},"mode":4,"indices":144,"material":27},{"attributes":{"POSITION":101,"TEXCOORD_0":123},"mode":4,"indices":145,"material":25},{"attributes":{"POSITION":102,"TEXCOORD_0":124},"mode":4,"indices":146,"material":28},{"attributes":{"POSITION":103,"TEXCOORD_0":125},"mode":4,"indices":147,"material":29},{"attributes":{"POSITION":104,"TEXCOORD_0":126},"mode":4,"indices":148,"material":30},{"attributes":{"POSITION":105,"TEXCOORD_0":127},"mode":4,"indices":149,"material":31},{"attributes":{"POSITION":106,"TEXCOORD_0":128},"mode":4,"indices":150,"material":32},{"attributes":{"POSITION":107,"TEXCOORD_0":129},"mode":4,"indices":151,"material":33},{"attributes":{"POSITION":108,"TEXCOORD_0":130},"mode":4,"indices":152,"material":34},{"attributes":{"POSITION":109,"TEXCOORD_0":131},"mode":4,"indices":153,"material":35},{"attributes":{"POSITION":110,"TEXCOORD_0":132},"mode":4,"indices":154,"material":36},{"attributes":{"POSITION":111,"TEXCOORD_0":133},"mode":4,"indices":155,"material":36},{"attributes":{"POSITION":112,"TEXCOORD_0":134},"mode":4,"indices":156,"material":37},{"attributes":{"POSITION":113,"TEXCOORD_0":135},"mode":4,"indices":157,"material":38},{"attributes":{"POSITION":114,"TEXCOORD_0":136},"mode":4,"indices":158,"material":39},{"attributes":{"POSITION":115,"TEXCOORD_0":137},"mode":4,"indices":159,"material":40},{"attributes":{"POSITION":116,"TEXCOORD_0":138},"mode":4,"indices":160,"material":41},{"attributes":{"POSITION":117,"TEXCOORD_0":139},"mode":4,"indices":161,"material":42},{"attributes":{"POSITION":118,"TEXCOORD_0":140},"mode":4,"indices":162,"material":43},{"attributes":{"POSITION":119,"TEXCOORD_0":141},"mode":4,"indices":163,"material":43}]},{"primitives":[{"attributes":{"POSITION":164,"TEXCOORD_0":165,"COLOR_0":166},"mode":4,"indices":167,"material":9}]},{"primitives":[{"attributes":{"POSITION":168,"TEXCOORD_0":169},"mode":4,"indices":170,"material":44}]},{"primitives":[{"attributes":{"POSITION":171,"TEXCOORD_0":183},"mode":4,"indices":195,"material":45},{"attributes":{"POSITION":172,"TEXCOORD_0":184},"mode":4,"indices":196,"material":46},{"attributes":{"POSITION":173,"TEXCOORD_0":185},"mode":4,"indices":197,"material":47},{"attributes":{"POSITION":174,"TEXCOORD_0":186},"mode":4,"indices":198,"material":45},{"attributes":{"POSITION":175,"TEXCOORD_0":187},"mode":4,"indices":199,"material":48},{"attributes":{"POSITION":176,"TEXCOORD_0":188},"mode":4,"indices":200,"material":45},{"attributes":{"POSITION":177,"TEXCOORD_0":189},"mode":4,"indices":201,"material":49},{"attributes":{"POSITION":178,"TEXCOORD_0":190},"mode":4,"indices":202,"material":46},{"attributes":{"POSITION":179,"TEXCOORD_0":191},"mode":4,"indices":203,"material":47},{"attributes":{"POSITION":180,"TEXCOORD_0":192},"mode":4,"indices":204,"material":45},{"attributes":{"POSITION":181,"TEXCOORD_0":193},"mode":4,"indices":205,"material":50},{"attributes":{"POSITION":182,"TEXCOORD_0":194},"mode":4,"indices":206,"material":3}]}],"materials":[{"pbrMetallicRoughness":{"baseColorFactor":[1,1,1,1],"metallicFactor":0,"roughnessFactor":1,"baseColorTexture":{"index":0,"texCoord":0}},"alphaMode":"OPAQUE"},{"pbrMetallicRoughness":{"baseColorFactor":[1,1,1,1],"metallicFactor":0,"roughnessFactor":1,"baseColorTexture":{"index":1,"texCoord":0}},"alphaMode":"OPAQUE"},{"pbrMetallicRoughness":{"baseColorFactor":[1,1,1,1],"metallicFactor":0,"roughnessFactor":1,"baseColorTexture":{"index":2,"texCoord":0}},"alphaMode":"OPAQUE"},{"pbrMetallicRoughness":{"baseColorFactor":[1,1,1,1],"metallicFactor":0,"roughnessFactor":1,"baseColorTexture":{"index":3,"texCoord":0}},"alphaMode":"OPAQUE"},{"pbrMetallicRoughness":{"baseColorFactor":[1,1,1,1],"metallicFactor":0,"roughnessFactor":1,"baseColorTexture":{"index":4,"texCoord":0}},"alphaMode":"OPAQUE"},{"pbrMetallicRoughness":{"baseColorFactor":[1,1,1,1],"metallicFactor":0,"roughnessFactor":1,"baseColorTexture":{"index":5,"texCoord":0}},"alphaMode":"OPAQUE"},{"pbrMetallicRoughness":{"baseColorFactor":[1,1,1,1],"metallicFactor":0,"roughnessFactor":1,"baseColorTexture":{"index":6,"texCoord":0}},"alphaMode":"OPAQUE"},{"pbrMetallicRoughness":{"baseColorFactor":[1,1,1,1],"metallicFactor":0,"roughnessFactor":1,"baseColorTexture":{"index":7,"texCoord":0}},"alphaMode":"OPAQUE"},{"pbrMetallicRoughness":{"baseColorFactor":[1,1,1,1],"metallicFactor":0,"roughnessFactor":1,"baseColorTexture":{"index":8,"texCoord":0}},"alphaMode":"OPAQUE"},{"pbrMetallicRoughness":{"baseColorFactor":[1,1,1,1],"metallicFactor":0,"roughnessFactor":1,"baseColorTexture":{"index":9,"texCoord":0}},"alphaMode":"BLEND"},{"pbrMetallicRoughness":{"baseColorFactor":[1,1,1,1],"metallicFactor":0,"roughnessFactor":1,"baseColorTexture":{"index":10,"texCoord":0}},"alphaMode":"OPAQUE"},{"pbrMetallicRoughness":{"baseColorFactor":[1,1,1,1],"metallicFactor":0,"roughnessFactor":1,"baseColorTexture":{"index":11,"texCoord":0}},"alphaMode":"OPAQUE"},{"pbrMetallicRoughness":{"baseColorFactor":[1,1,1,1],"metallicFactor":0,"roughnessFactor":1,"baseColorTexture":{"index":12,"texCoord":0}},"alphaMode":"OPAQUE"},{"pbrMetallicRoughness":{"baseColorFactor":[1,1,1,1],"metallicFactor":0,"roughnessFactor":1,"baseColorTexture":{"index":13,"texCoord":0}},"alphaMode":"OPAQUE"},{"pbrMetallicRoughness":{"baseColorFactor":[1,1,1,1],"metallicFactor":0,"roughnessFactor":1,"baseColorTexture":{"index":14,"texCoord":0}},"alphaMode":"OPAQUE"},{"pbrMetallicRoughness":{"baseColorFactor":[1,1,1,1],"metallicFactor":0,"roughnessFactor":1,"baseColorTexture":{"index":15,"texCoord":0}},"alphaMode":"OPAQUE"},{"pbrMetallicRoughness":{"baseColorFactor":[1,1,1,1],"metallicFactor":0,"roughnessFactor":1,"baseColorTexture":{"index":16,"texCoord":0}},"alphaMode":"OPAQUE"},{"pbrMetallicRoughness":{"baseColorFactor":[1,1,1,1],"metallicFactor":0,"roughnessFactor":1,"baseColorTexture":{"index":17,"texCoord":0}},"alphaMode":"OPAQUE"},{"pbrMetallicRoughness":{"baseColorFactor":[1,1,1,1],"metallicFactor":0,"roughnessFactor":1,"baseColorTexture":{"index":18,"texCoord":0}},"alphaMode":"OPAQUE"},{"pbrMetallicRoughness":{"baseColorFactor":[1,1,1,1],"metallicFactor":0,"roughnessFactor":1,"baseColorTexture":{"index":19,"texCoord":0}},"alphaMode":"OPAQUE"},{"pbrMetallicRoughness":{"baseColorFactor":[1,1,1,1],"metallicFactor":0,"roughnessFactor":1,"baseColorTexture":{"index":20,"texCoord":0}},"alphaMode":"OPAQUE"},{"pbrMetallicRoughness":{"baseColorFactor":[1,1,1,1],"metallicFactor":0,"roughnessFactor":1,"baseColorTexture":{"index":21,"texCoord":0}},"alphaMode":"OPAQUE"},{"pbrMetallicRoughness":{"baseColorFactor":[1,1,1,1],"metallicFactor":0,"roughnessFactor":1,"baseColorTexture":{"index":22,"texCoord":0}},"alphaMode":"OPAQUE"},{"pbrMetallicRoughness":{"baseColorFactor":[1,1,1,1],"metallicFactor":0,"roughnessFactor":1,"baseColorTexture":{"index":23,"texCoord":0}},"alphaMode":"OPAQUE"},{"pbrMetallicRoughness":{"baseColorFactor":[1,1,1,1],"metallicFactor":0,"roughnessFactor":1,"baseColorTexture":{"index":24,"texCoord":0}},"alphaMode":"OPAQUE"},{"pbrMetallicRoughness":{"baseColorFactor":[1,1,1,1],"metallicFactor":0,"roughnessFactor":1,"baseColorTexture":{"index":25,"texCoord":0}},"alphaMode":"OPAQUE"},{"pbrMetallicRoughness":{"baseColorFactor":[1,1,1,1],"metallicFactor":0,"roughnessFactor":1,"baseColorTexture":{"index":26,"texCoord":0}},"alphaMode":"OPAQUE"},{"pbrMetallicRoughness":{"baseColorFactor":[1,1,1,1],"metallicFactor":0,"roughnessFactor":1,"baseColorTexture":{"index":27,"texCoord":0}},"alphaMode":"OPAQUE"},{"pbrMetallicRoughness":{"baseColorFactor":[1,1,1,1],"metallicFactor":0,"roughnessFactor":1,"baseColorTexture":{"index":28,"texCoord":0}},"alphaMode":"OPAQUE"},{"pbrMetallicRoughness":{"baseColorFactor":[1,1,1,1],"metallicFactor":0,"roughnessFactor":1,"baseColorTexture":{"index":29,"texCoord":0}},"alphaMode":"OPAQUE"},{"pbrMetallicRoughness":{"baseColorFactor":[1,1,1,1],"metallicFactor":0,"roughnessFactor":1,"baseColorTexture":{"index":30,"texCoord":0}},"alphaMode":"OPAQUE"},{"pbrMetallicRoughness":{"baseColorFactor":[1,1,1,1],"metallicFactor":0,"roughnessFactor":1,"baseColorTexture":{"index":31,"texCoord":0}},"alphaMode":"OPAQUE"},{"pbrMetallicRoughness":{"baseColorFactor":[1,1,1,1],"metallicFactor":0,"roughnessFactor":1,"baseColorTexture":{"index":32,"texCoord":0}},"alphaMode":"OPAQUE"},{"pbrMetallicRoughness":{"baseColorFactor":[1,1,1,1],"metallicFactor":0,"roughnessFactor":1,"baseColorTexture":{"index":33,"texCoord":0}},"alphaMode":"OPAQUE"},{"pbrMetallicRoughness":{"baseColorFactor":[1,1,1,1],"metallicFactor":0,"roughnessFactor":1,"baseColorTexture":{"index":34,"texCoord":0}},"alphaMode":"OPAQUE"},{"pbrMetallicRoughness":{"baseColorFactor":[1,1,1,1],"metallicFactor":0,"roughnessFactor":1,"baseColorTexture":{"index":35,"texCoord":0}},"alphaMode":"OPAQUE"},{"pbrMetallicRoughness":{"baseColorFactor":[1,1,1,1],"metallicFactor":0,"roughnessFactor":1,"baseColorTexture":{"index":36,"texCoord":0}},"alphaMode":"OPAQUE"},{"pbrMetallicRoughness":{"baseColorFactor":[1,1,1,1],"metallicFactor":0,"roughnessFactor":1,"baseColorTexture":{"index":37,"texCoord":0}},"alphaMode":"OPAQUE"},{"pbrMetallicRoughness":{"baseColorFactor":[1,1,1,1],"metallicFactor":0,"roughnessFactor":1,"baseColorTexture":{"index":38,"texCoord":0}},"alphaMode":"OPAQUE"},{"pbrMetallicRoughness":{"baseColorFactor":[1,1,1,1],"metallicFactor":0,"roughnessFactor":1,"baseColorTexture":{"index":39,"texCoord":0}},"alphaMode":"OPAQUE"},{"pbrMetallicRoughness":{"baseColorFactor":[1,1,1,1],"metallicFactor":0,"roughnessFactor":1,"baseColorTexture":{"index":40,"texCoord":0}},"alphaMode":"OPAQUE"},{"pbrMetallicRoughness":{"baseColorFactor":[1,1,1,1],"metallicFactor":0,"roughnessFactor":1,"baseColorTexture":{"index":41,"texCoord":0}},"alphaMode":"OPAQUE"},{"pbrMetallicRoughness":{"baseColorFactor":[1,1,1,1],"metallicFactor":0,"roughnessFactor":1,"baseColorTexture":{"index":42,"texCoord":0}},"alphaMode":"OPAQUE"},{"pbrMetallicRoughness":{"baseColorFactor":[1,1,1,1],"metallicFactor":0,"roughnessFactor":1,"baseColorTexture":{"index":43,"texCoord":0}},"alphaMode":"OPAQUE"},{"pbrMetallicRoughness":{"baseColorFactor":[1,1,1,1],"metallicFactor":0,"roughnessFactor":1,"baseColorTexture":{"index":44,"texCoord":0}},"alphaMode":"OPAQUE"},{"pbrMetallicRoughness":{"baseColorFactor":[1,1,1,1],"metallicFactor":0,"roughnessFactor":1,"baseColorTexture":{"index":45,"texCoord":0}},"alphaMode":"OPAQUE"},{"pbrMetallicRoughness":{"baseColorFactor":[1,1,1,1],"metallicFactor":0,"roughnessFactor":1,"baseColorTexture":{"index":46,"texCoord":0}},"alphaMode":"OPAQUE"},{"pbrMetallicRoughness":{"baseColorFactor":[1,1,1,1],"metallicFactor":0,"roughnessFactor":1,"baseColorTexture":{"index":47,"texCoord":0}},"alphaMode":"OPAQUE"},{"pbrMetallicRoughness":{"baseColorFactor":[1,1,1,1],"metallicFactor":0,"roughnessFactor":1,"baseColorTexture":{"index":48,"texCoord":0}},"alphaMode":"OPAQUE"},{"pbrMetallicRoughness":{"baseColorFactor":[1,1,1,1],"metallicFactor":0,"roughnessFactor":1,"baseColorTexture":{"index":49,"texCoord":0}},"alphaMode":"OPAQUE"},{"pbrMetallicRoughness":{"baseColorFactor":[1,1,1,1],"metallicFactor":0,"roughnessFactor":1,"baseColorTexture":{"index":50,"texCoord":0}},"alphaMode":"OPAQUE"}],"textures":[{"source":0,"sampler":0},{"source":1,"sampler":0},{"source":2,"sampler":0},{"source":3,"sampler":0},{"source":4,"sampler":0},{"source":5,"sampler":0},{"source":6,"sampler":0},{"source":7,"sampler":0},{"source":8,"sampler":0},{"source":9,"sampler":0},{"source":10,"sampler":0},{"source":11,"sampler":0},{"source":12,"sampler":0},{"source":13,"sampler":0},{"source":14,"sampler":0},{"source":15,"sampler":0},{"source":16,"sampler":0},{"source":17,"sampler":0},{"source":18,"sampler":0},{"source":19,"sampler":0},{"source":20,"sampler":0},{"source":21,"sampler":0},{"source":22,"sampler":0},{"source":23,"sampler":0},{"source":24,"sampler":0},{"source":25,"sampler":0},{"source":26,"sampler":0},{"source":27,"sampler":0},{"source":28,"sampler":0},{"source":29,"sampler":0},{"source":30,"sampler":0},{"source":31,"sampler":0},{"source":32,"sampler":0},{"source":33,"sampler":0},{"source":34,"sampler":0},{"source":35,"sampler":0},{"source":36,"sampler":0},{"source":37,"sampler":0},{"source":38,"sampler":0},{"source":39,"sampler":0},{"source":40,"sampler":0},{"source":41,"sampler":0},{"source":42,"sampler":0},{"source":43,"sampler":0},{"source":44,"sampler":0},{"source":45,"sampler":0},{"source":46,"sampler":0},{"source":47,"sampler":0},{"source":48,"sampler":0},{"source":49,"sampler":0},{"source":50,"sampler":0}],"images":[{"uri":"BakedTexture0137bfec.png"},{"uri":"BakedTexture0137bfec.01.png"},{"uri":"BakedTexture0137bfec.02.png"},{"uri":"BakedTexture0137bfcc.06.png"},{"uri":"BakedTexture0137bfec.03.png"},{"uri":"BakedTexture0137bf30.10.png"},{"uri":"BakedTexture0137bfec.04.png"},{"uri":"BakedTexture0137bfec.05.png"},{"uri":"BakedTexture0137bfec.06.png"},{"uri":"texture_0.png"},{"uri":"BakedTexture0137bf30.png"},{"uri":"BakedTexture0137bf30.01.png"},{"uri":"BakedTexture0137bf30.02.png"},{"uri":"BakedTexture0137bf30.03.png"},{"uri":"BakedTexture0137bf30.04.png"},{"uri":"BakedTexture0137bf30.05.png"},{"uri":"BakedTexture0137bf30.06.png"},{"uri":"BakedTexture0137bf30.07.png"},{"uri":"BakedTexture0137bf30.08.png"},{"uri":"BakedTexture0137bf30.09.png"},{"uri":"BakedTexture0137bf7e.png"},{"uri":"BakedTexture0137bf7e.01.png"},{"uri":"BakedTexture0137bf7e.02.png"},{"uri":"BakedTexture0137bf7e.03.png"},{"uri":"BakedTexture0137bf7e.04.png"},{"uri":"BakedTexture0137bf9e.png"},{"uri":"BakedTexture0137bf9e.01.png"},{"uri":"BakedTexture0137bf9e.02.png"},{"uri":"BakedTexture0137bf9e.03.png"},{"uri":"BakedTexture0137bf9e.04.png"},{"uri":"BakedTexture0137bfad.png"},{"uri":"BakedTexture0137bfad.01.png"},{"uri":"BakedTexture0137bfad.02.png"},{"uri":"BakedTexture0137bfad.03.png"},{"uri":"BakedTexture0137bfad.04.png"},{"uri":"BakedTexture0137bfad.05.png"},{"uri":"BakedTexture0137bfad.06.png"},{"uri":"BakedTexture0137bfad.07.png"},{"uri":"BakedTexture0137bfad.08.png"},{"uri":"BakedTexture0137bfad.09.png"},{"uri":"BakedTexture0137bfad.10.png"},{"uri":"BakedTexture0137bfad.11.png"},{"uri":"BakedTexture0137bfad.12.png"},{"uri":"BakedTexture0137bfad.13.png"},{"uri":"texture_2.png"},{"uri":"BakedTexture0137bfcc.png"},{"uri":"BakedTexture0137bfcc.01.png"},{"uri":"BakedTexture0137bfcc.02.png"},{"uri":"BakedTexture0137bfcc.03.png"},{"uri":"BakedTexture0137bfcc.04.png"},{"uri":"BakedTexture0137bfcc.05.png"}],"samplers":[{"magFilter":9728,"wrapS":10497,"wrapT":10497}],"accessors":[{"bufferView":0,"byteOffset":0,"count":36,"componentType":5126,"type":"VEC3","min":[-1.5,1.4999990463256836,-2.4999995231628418],"max":[-1.5,4.4999990463256836,1.5]},{"bufferView":0,"byteOffset":432,"count":9,"componentType":5126,"type":"VEC3","min":[-2.5,1.4999990463256836,1.5],"max":[-1.5,4.4999990463256836,1.5]},{"bufferView":0,"byteOffset":540,"count":9,"componentType":5126,"type":"VEC3","min":[-2.5,1.4999990463256836,-2.4999995231628418],"max":[-1.5,4.4999990463256836,-2.4999990463256836]},{"bufferView":0,"byteOffset":648,"count":36,"componentType":5126,"type":"VEC3","min":[-1.5,1.4999990463256836,-2.4999995231628418],"max":[-1.5,4.4999990463256836,1.5]},{"bufferView":0,"byteOffset":1080,"count":12,"componentType":5126,"type":"VEC3","min":[-2.5,1.4999990463256836,-2.4999995231628418],"max":[-1.5,1.4999990463256836,1.5]},{"bufferView":0,"byteOffset":1224,"count":36,"componentType":5126,"type":"VEC3","min":[-2.5,1.4999990463256836,-2.4999995231628418],"max":[-2.5,4.4999990463256836,1.5]},{"bufferView":0,"byteOffset":1656,"count":12,"componentType":5126,"type":"VEC3","min":[-2.5,4.4999990463256836,-2.4999990463256836],"max":[-1.5,4.4999990463256836,1.5]},{"bufferView":0,"byteOffset":1800,"count":9,"componentType":5126,"type":"VEC3","min":[-2.5,1.4999990463256836,1.5],"max":[-1.5,4.4999990463256836,1.5]},{"bufferView":0,"byteOffset":1908,"count":9,"componentType":5126,"type":"VEC3","min":[-2.5,1.4999990463256836,-2.4999995231628418],"max":[-1.5,4.4999990463256836,-2.4999990463256836]},{"bufferView":0,"byteOffset":2016,"count":36,"componentType":5126,"type":"VEC3","min":[-2.5,1.4999990463256836,-2.4999995231628418],"max":[-2.5,4.4999990463256836,1.5]},{"bufferView":0,"byteOffset":2448,"count":12,"componentType":5126,"type":"VEC3","min":[-2.5,4.4999990463256836,-2.4999990463256836],"max":[-1.5,4.4999990463256836,1.5]},{"bufferView":0,"byteOffset":2592,"count":12,"componentType":5126,"type":"VEC3","min":[-2.5,1.4999990463256836,-2.4999995231628418],"max":[-1.5,1.4999990463256836,1.5]},{"bufferView":1,"byteOffset":0,"count":36,"componentType":5126,"type":"VEC2"},{"bufferView":1,"byteOffset":288,"count":9,"componentType":5126,"type":"VEC2"},{"bufferView":1,"byteOffset":360,"count":9,"componentType":5126,"type":"VEC2"},{"bufferView":1,"byteOffset":432,"count":36,"componentType":5126,"type":"VEC2"},{"bufferView":1,"byteOffset":720,"count":12,"componentType":5126,"type":"VEC2"},{"bufferView":1,"byteOffset":816,"count":36,"componentType":5126,"type":"VEC2"},{"bufferView":1,"byteOffset":1104,"count":12,"componentType":5126,"type":"VEC2"},{"bufferView":1,"byteOffset":1200,"count":9,"componentType":5126,"type":"VEC2"},{"bufferView":1,"byteOffset":1272,"count":9,"componentType":5126,"type":"VEC2"},{"bufferView":1,"byteOffset":1344,"count":36,"componentType":5126,"type":"VEC2"},{"bufferView":1,"byteOffset":1632,"count":12,"componentType":5126,"type":"VEC2"},{"bufferView":1,"byteOffset":1728,"count":12,"componentType":5126,"type":"VEC2"},{"bufferView":2,"byteOffset":0,"count":36,"componentType":5125,"type":"SCALAR"},{"bufferView":2,"byteOffset":144,"count":9,"componentType":5125,"type":"SCALAR"},{"bufferView":2,"byteOffset":180,"count":9,"componentType":5125,"type":"SCALAR"},{"bufferView":2,"byteOffset":216,"count":36,"componentType":5125,"type":"SCALAR"},{"bufferView":2,"byteOffset":360,"count":12,"componentType":5125,"type":"SCALAR"},{"bufferView":2,"byteOffset":408,"count":36,"componentType":5125,"type":"SCALAR"},{"bufferView":2,"byteOffset":552,"count":12,"componentType":5125,"type":"SCALAR"},{"bufferView":2,"byteOffset":600,"count":9,"componentType":5125,"type":"SCALAR"},{"bufferView":2,"byteOffset":636,"count":9,"componentType":5125,"type":"SCALAR"},{"bufferView":2,"byteOffset":672,"count":36,"componentType":5125,"type":"SCALAR"},{"bufferView":2,"byteOffset":816,"count":12,"componentType":5125,"type":"SCALAR"},{"bufferView":2,"byteOffset":864,"count":12,"componentType":5125,"type":"SCALAR"},{"bufferView":3,"byteOffset":0,"count":36,"componentType":5126,"type":"VEC3","min":[-0.5,-4.0634765625,-0.49900102615356445],"max":[2.063507080078125,-0.5,0.49900054931640625]},{"bufferView":4,"byteOffset":0,"count":36,"componentType":5126,"type":"VEC2"},{"bufferView":5,"byteOffset":0,"count":36,"componentType":5121,"type":"VEC4","normalized":true},{"bufferView":6,"byteOffset":0,"count":72,"componentType":5125,"type":"SCALAR"},{"bufferView":7,"byteOffset":0,"count":72,"componentType":5126,"type":"VEC3","min":[-0.5,-4.4999990463256836,-2.5],"max":[2.5,1.5000001192092896,1.5]},{"bufferView":7,"byteOffset":864,"count":123,"componentType":5126,"type":"VEC3","min":[-1.5,-4.4999990463256836,-1.5000004768371582],"max":[2.5,1.5,1.5]},{"bufferView":7,"byteOffset":2340,"count":123,"componentType":5126,"type":"VEC3","min":[-1.5,-4.4999990463256836,-2.5],"max":[2.5,1.5000001192092896,0.5]},{"bufferView":7,"byteOffset":3816,"count":72,"componentType":5126,"type":"VEC3","min":[-0.5,-4.4999990463256836,-2.5],"max":[2.5,1.5,1.5]},{"bufferView":7,"byteOffset":4680,"count":48,"componentType":5126,"type":"VEC3","min":[-1.5,-4.4999990463256836,-2.5],"max":[2.5,-0.4999997615814209,1.4999990463256836]},{"bufferView":7,"byteOffset":5256,"count":72,"componentType":5126,"type":"VEC3","min":[-1.5,-4.4999990463256836,-2.5],"max":[1.5,1.5000001192092896,1.5]},{"bufferView":7,"byteOffset":6120,"count":48,"componentType":5126,"type":"VEC3","min":[-1.5,-3.4999997615814209,-2.4999995231628418],"max":[2.5,1.5000001192092896,1.5]},{"bufferView":7,"byteOffset":6696,"count":123,"componentType":5126,"type":"VEC3","min":[-1.5,-4.4999990463256836,-1.5000004768371582],"max":[2.5,1.5,1.5]},{"bufferView":7,"byteOffset":8172,"count":123,"componentType":5126,"type":"VEC3","min":[-1.5,-4.4999990463256836,-2.5],"max":[2.5,1.5000001192092896,0.5]},{"bufferView":7,"byteOffset":9648,"count":72,"componentType":5126,"type":"VEC3","min":[-1.5,-4.4999990463256836,-2.5],"max":[1.5,1.5000001192092896,1.5]},{"bufferView":7,"byteOffset":10512,"count":48,"componentType":5126,"type":"VEC3","min":[-1.5,-3.4999997615814209,-2.4999995231628418],"max":[2.5,1.5000001192092896,1.5]},{"bufferView":7,"byteOffset":11088,"count":48,"componentType":5126,"type":"VEC3","min":[-1.5,-4.4999990463256836,-2.5],"max":[2.5,-0.4999997615814209,1.4999990463256836]},{"bufferView":8,"byteOffset":0,"count":72,"componentType":5126,"type":"VEC2"},{"bufferView":8,"byteOffset":576,"count":123,"componentType":5126,"type":"VEC2"},{"bufferView":8,"byteOffset":1560,"count":123,"componentType":5126,"type":"VEC2"},{"bufferView":8,"byteOffset":2544,"count":72,"componentType":5126,"type":"VEC2"},{"bufferView":8,"byteOffset":3120,"count":48,"componentType":5126,"type":"VEC2"},{"bufferView":8,"byteOffset":3504,"count":72,"componentType":5126,"type":"VEC2"},{"bufferView":8,"byteOffset":4080,"count":48,"componentType":5126,"type":"VEC2"},{"bufferView":8,"byteOffset":4464,"count":123,"componentType":5126,"type":"VEC2"},{"bufferView":8,"byteOffset":5448,"count":123,"componentType":5126,"type":"VEC2"},{"bufferView":8,"byteOffset":6432,"count":72,"componentType":5126,"type":"VEC2"},{"bufferView":8,"byteOffset":7008,"count":48,"componentType":5126,"type":"VEC2"},{"bufferView":8,"byteOffset":7392,"count":48,"componentType":5126,"type":"VEC2"},{"bufferView":9,"byteOffset":0,"count":72,"componentType":5125,"type":"SCALAR"},{"bufferView":9,"byteOffset":288,"count":123,"componentType":5125,"type":"SCALAR"},{"bufferView":9,"byteOffset":780,"count":123,"componentType":5125,"type":"SCALAR"},{"bufferView":9,"byteOffset":1272,"count":72,"componentType":5125,"type":"SCALAR"},{"bufferView":9,"byteOffset":1560,"count":48,"componentType":5125,"type":"SCALAR"},{"bufferView":9,"byteOffset":1752,"count":72,"componentType":5125,"type":"SCALAR"},{"bufferView":9,"byteOffset":2040,"count":48,"componentType":5125,"type":"SCALAR"},{"bufferView":9,"byteOffset":2232,"count":123,"componentType":5125,"type":"SCALAR"},{"bufferView":9,"byteOffset":2724,"count":123,"componentType":5125,"type":"SCALAR"},{"bufferView":9,"byteOffset":3216,"count":72,"componentType":5125,"type":"SCALAR"},{"bufferView":9,"byteOffset":3504,"count":48,"componentType":5125,"type":"SCALAR"},{"bufferView":9,"byteOffset":3696,"count":48,"componentType":5125,"type":"SCALAR"},{"bufferView":10,"byteOffset":0,"count":16,"componentType":5126,"type":"VEC3","min":[-0.5,3.9364919662475586,-0.49900007247924805],"max":[0.5,4.0635061264038086,0.49900102615356445]},{"bufferView":11,"byteOffset":0,"count":16,"componentType":5126,"type":"VEC2"},{"bufferView":12,"byteOffset":0,"count":16,"componentType":5121,"type":"VEC4","normalized":true},{"bufferView":13,"byteOffset":0,"count":36,"componentType":5125,"type":"SCALAR"},{"bufferView":14,"byteOffset":0,"count":3,"componentType":5126,"type":"VEC3","min":[1.438140869140625,2.9374990463256836,-0.3000030517578125],"max":[1.563140869140625,3.0624990463256836,-0.3000030517578125]},{"bufferView":14,"byteOffset":36,"count":12,"componentType":5126,"type":"VEC3","min":[1.190643310546875,2.9374990463256836,-0.3000030517578125],"max":[1.563140869140625,3.0624990463256836,0.31874847412109375]},{"bufferView":14,"byteOffset":180,"count":3,"componentType":5126,"type":"VEC3","min":[1.19000244140625,2.9374990463256836,0.31874847412109375],"max":[1.31500244140625,3.0624990463256836,0.31874847412109375]},{"bufferView":14,"byteOffset":216,"count":3,"componentType":5126,"type":"VEC3","min":[1.438140869140625,2.9374990463256836,-0.3000030517578125],"max":[1.563140869140625,3.0624990463256836,-0.3000030517578125]},{"bufferView":14,"byteOffset":252,"count":12,"componentType":5126,"type":"VEC3","min":[1.190643310546875,2.9374990463256836,-0.3000030517578125],"max":[1.563140869140625,3.0624990463256836,0.31874847412109375]},{"bufferView":14,"byteOffset":396,"count":3,"componentType":5126,"type":"VEC3","min":[1.19000244140625,2.9374990463256836,0.31874847412109375],"max":[1.31500244140625,3.0624990463256836,0.31874847412109375]},{"bufferView":15,"byteOffset":0,"count":3,"componentType":5126,"type":"VEC2"},{"bufferView":15,"byteOffset":24,"count":12,"componentType":5126,"type":"VEC2"},{"bufferView":15,"byteOffset":120,"count":3,"componentType":5126,"type":"VEC2"},{"bufferView":15,"byteOffset":144,"count":3,"componentType":5126,"type":"VEC2"},{"bufferView":15,"byteOffset":168,"count":12,"componentType":5126,"type":"VEC2"},{"bufferView":15,"byteOffset":264,"count":3,"componentType":5126,"type":"VEC2"},{"bufferView":16,"byteOffset":0,"count":3,"componentType":5125,"type":"SCALAR"},{"bufferView":16,"byteOffset":12,"count":12,"componentType":5125,"type":"SCALAR"},{"bufferView":16,"byteOffset":60,"count":3,"componentType":5125,"type":"SCALAR"},{"bufferView":16,"byteOffset":72,"count":3,"componentType":5125,"type":"SCALAR"},{"bufferView":16,"byteOffset":84,"count":12,"componentType":5125,"type":"SCALAR"},{"bufferView":16,"byteOffset":132,"count":3,"componentType":5125,"type":"SCALAR"},{"bufferView":17,"byteOffset":0,"count":39,"componentType":5126,"type":"VEC3","min":[-0.5,1.4999990463256836,-2.4999995231628418],"max":[2.5,4.4999990463256836,1.5]},{"bufferView":17,"byteOffset":468,"count":51,"componentType":5126,"type":"VEC3","min":[-1.5,1.4999990463256836,-1.5],"max":[2.5,4.4999990463256836,1.5]},{"bufferView":17,"byteOffset":1080,"count":57,"componentType":5126,"type":"VEC3","min":[-1.5,1.4999990463256836,-2.4999995231628418],"max":[2.5,4.4999990463256836,0.5000004768371582]},{"bufferView":17,"byteOffset":1764,"count":39,"componentType":5126,"type":"VEC3","min":[-0.5,1.4999990463256836,-2.4999995231628418],"max":[2.5,4.4999990463256836,1.5]},{"bufferView":17,"byteOffset":2232,"count":42,"componentType":5126,"type":"VEC3","min":[-1.5,1.4999990463256836,-2.4999995231628418],"max":[2.5,3.4999990463256836,1.5]},{"bufferView":17,"byteOffset":2736,"count":33,"componentType":5126,"type":"VEC3","min":[-1.5,1.4999990463256836,-2.4999995231628418],"max":[1.5,4.4999990463256836,1.5]},{"bufferView":17,"byteOffset":3132,"count":45,"componentType":5126,"type":"VEC3","min":[-1.5,4.4999990463256836,-2.4999990463256836],"max":[2.5,4.4999990463256836,1.5]},{"bufferView":17,"byteOffset":3672,"count":51,"componentType":5126,"type":"VEC3","min":[-1.5,1.4999990463256836,-1.5],"max":[2.5,4.4999990463256836,1.5]},{"bufferView":17,"byteOffset":4284,"count":57,"componentType":5126,"type":"VEC3","min":[-1.5,1.4999990463256836,-2.4999995231628418],"max":[2.5,4.4999990463256836,0.5000004768371582]},{"bufferView":17,"byteOffset":4968,"count":33,"componentType":5126,"type":"VEC3","min":[-1.5,1.4999990463256836,-2.4999995231628418],"max":[1.5,4.4999990463256836,1.5]},{"bufferView":17,"byteOffset":5364,"count":45,"componentType":5126,"type":"VEC3","min":[-1.5,4.4999990463256836,-2.4999990463256836],"max":[2.5,4.4999990463256836,1.5]},{"bufferView":17,"byteOffset":5904,"count":42,"componentType":5126,"type":"VEC3","min":[-1.5,1.4999990463256836,-2.4999995231628418],"max":[2.5,3.4999990463256836,1.5]},{"bufferView":17,"byteOffset":6408,"count":3,"componentType":5126,"type":"VEC3","min":[0.5,1.4999990463256836,-1.5],"max":[1.5,1.4999990463256836,-0.5]},{"bufferView":17,"byteOffset":6444,"count":3,"componentType":5126,"type":"VEC3","min":[0.5,1.4999990463256836,-1.5],"max":[1.5,1.4999990463256836,-0.5]},{"bufferView":17,"byteOffset":6480,"count":3,"componentType":5126,"type":"VEC3","min":[0.5,1.4999990463256836,-0.5],"max":[1.5,2.4999990463256836,-0.5]},{"bufferView":17,"byteOffset":6516,"count":3,"componentType":5126,"type":"VEC3","min":[0.5,1.4999990463256836,-0.5],"max":[1.5,2.4999990463256836,-0.5]},{"bufferView":17,"byteOffset":6552,"count":3,"componentType":5126,"type":"VEC3","min":[0.5,1.4999990463256836,-1.5],"max":[0.5,2.4999990463256836,-0.5]},{"bufferView":17,"byteOffset":6588,"count":3,"componentType":5126,"type":"VEC3","min":[0.5,1.4999990463256836,-1.5],"max":[0.5,2.4999990463256836,-0.5]},{"bufferView":17,"byteOffset":6624,"count":3,"componentType":5126,"type":"VEC3","min":[0.5,2.4999990463256836,-1.5],"max":[0.5,3.4999990463256836,-0.5]},{"bufferView":17,"byteOffset":6660,"count":3,"componentType":5126,"type":"VEC3","min":[0.5,2.4999990463256836,-1.5],"max":[0.5,3.4999990463256836,-0.5]},{"bufferView":17,"byteOffset":6696,"count":3,"componentType":5126,"type":"VEC3","min":[0.5,2.4999990463256836,-0.5],"max":[1.5,3.4999990463256836,-0.5]},{"bufferView":17,"byteOffset":6732,"count":3,"componentType":5126,"type":"VEC3","min":[0.5,2.4999990463256836,-0.5],"max":[1.5,3.4999990463256836,-0.5]},{"bufferView":18,"byteOffset":0,"count":39,"componentType":5126,"type":"VEC2"},{"bufferView":18,"byteOffset":312,"count":51,"componentType":5126,"type":"VEC2"},{"bufferView":18,"byteOffset":720,"count":57,"componentType":5126,"type":"VEC2"},{"bufferView":18,"byteOffset":1176,"count":39,"componentType":5126,"type":"VEC2"},{"bufferView":18,"byteOffset":1488,"count":42,"componentType":5126,"type":"VEC2"},{"bufferView":18,"byteOffset":1824,"count":33,"componentType":5126,"type":"VEC2"},{"bufferView":18,"byteOffset":2088,"count":45,"componentType":5126,"type":"VEC2"},{"bufferView":18,"byteOffset":2448,"count":51,"componentType":5126,"type":"VEC2"},{"bufferView":18,"byteOffset":2856,"count":57,"componentType":5126,"type":"VEC2"},{"bufferView":18,"byteOffset":3312,"count":33,"componentType":5126,"type":"VEC2"},{"bufferView":18,"byteOffset":3576,"count":45,"componentType":5126,"type":"VEC2"},{"bufferView":18,"byteOffset":3936,"count":42,"componentType":5126,"type":"VEC2"},{"bufferView":18,"byteOffset":4272,"count":3,"componentType":5126,"type":"VEC2"},{"bufferView":18,"byteOffset":4296,"count":3,"componentType":5126,"type":"VEC2"},{"bufferView":18,"byteOffset":4320,"count":3,"componentType":5126,"type":"VEC2"},{"bufferView":18,"byteOffset":4344,"count":3,"componentType":5126,"type":"VEC2"},{"bufferView":18,"byteOffset":4368,"count":3,"componentType":5126,"type":"VEC2"},{"bufferView":18,"byteOffset":4392,"count":3,"componentType":5126,"type":"VEC2"},{"bufferView":18,"byteOffset":4416,"count":3,"componentType":5126,"type":"VEC2"},{"bufferView":18,"byteOffset":4440,"count":3,"componentType":5126,"type":"VEC2"},{"bufferView":18,"byteOffset":4464,"count":3,"componentType":5126,"type":"VEC2"},{"bufferView":18,"byteOffset":4488,"count":3,"componentType":5126,"type":"VEC2"},{"bufferView":19,"byteOffset":0,"count":39,"componentType":5125,"type":"SCALAR"},{"bufferView":19,"byteOffset":156,"count":51,"componentType":5125,"type":"SCALAR"},{"bufferView":19,"byteOffset":360,"count":57,"componentType":5125,"type":"SCALAR"},{"bufferView":19,"byteOffset":588,"count":39,"componentType":5125,"type":"SCALAR"},{"bufferView":19,"byteOffset":744,"count":42,"componentType":5125,"type":"SCALAR"},{"bufferView":19,"byteOffset":912,"count":33,"componentType":5125,"type":"SCALAR"},{"bufferView":19,"byteOffset":1044,"count":45,"componentType":5125,"type":"SCALAR"},{"bufferView":19,"byteOffset":1224,"count":51,"componentType":5125,"type":"SCALAR"},{"bufferView":19,"byteOffset":1428,"count":57,"componentType":5125,"type":"SCALAR"},{"bufferView":19,"byteOffset":1656,"count":33,"componentType":5125,"type":"SCALAR"},{"bufferView":19,"byteOffset":1788,"count":45,"componentType":5125,"type":"SCALAR"},{"bufferView":19,"byteOffset":1968,"count":42,"componentType":5125,"type":"SCALAR"},{"bufferView":19,"byteOffset":2136,"count":3,"componentType":5125,"type":"SCALAR"},{"bufferView":19,"byteOffset":2148,"count":3,"componentType":5125,"type":"SCALAR"},{"bufferView":19,"byteOffset":2160,"count":3,"componentType":5125,"type":"SCALAR"},{"bufferView":19,"byteOffset":2172,"count":3,"componentType":5125,"type":"SCALAR"},{"bufferView":19,"byteOffset":2184,"count":3,"componentType":5125,"type":"SCALAR"},{"bufferView":19,"byteOffset":2196,"count":3,"componentType":5125,"type":"SCALAR"},{"bufferView":19,"byteOffset":2208,"count":3,"componentType":5125,"type":"SCALAR"},{"bufferView":19,"byteOffset":2220,"count":3,"componentType":5125,"type":"SCALAR"},{"bufferView":19,"byteOffset":2232,"count":3,"componentType":5125,"type":"SCALAR"},{"bufferView":19,"byteOffset":2244,"count":3,"componentType":5125,"type":"SCALAR"},{"bufferView":20,"byteOffset":0,"count":16,"componentType":5126,"type":"VEC3","min":[-2.063507080078125,-2.4999997615814209,-0.49900102615356445],"max":[-1.936492919921875,-1.4999997615814209,0.49900007247924805]},{"bufferView":21,"byteOffset":0,"count":16,"componentType":5126,"type":"VEC2"},{"bufferView":22,"byteOffset":0,"count":16,"componentType":5121,"type":"VEC4","normalized":true},{"bufferView":23,"byteOffset":0,"count":36,"componentType":5125,"type":"SCALAR"},{"bufferView":24,"byteOffset":0,"count":16,"componentType":5126,"type":"VEC3","min":[-2.5,0.49999988079071045,-1.5],"max":[-2.3175048828125,1.5,0.5]},{"bufferView":25,"byteOffset":0,"count":16,"componentType":5126,"type":"VEC2"},{"bufferView":26,"byteOffset":0,"count":24,"componentType":5125,"type":"SCALAR"},{"bufferView":27,"byteOffset":0,"count":63,"componentType":5126,"type":"VEC3","min":[-1.5,-4.4999990463256836,-2.5],"max":[-1.5,1.5000001192092896,1.5]},{"bufferView":27,"byteOffset":756,"count":24,"componentType":5126,"type":"VEC3","min":[-2.5,-4.4999990463256836,-1.5],"max":[-1.5,1.5,1.5]},{"bufferView":27,"byteOffset":1044,"count":24,"componentType":5126,"type":"VEC3","min":[-2.5,-4.4999990463256836,-2.5],"max":[-1.5,1.5000001192092896,0.5]},{"bufferView":27,"byteOffset":1332,"count":63,"componentType":5126,"type":"VEC3","min":[-1.5,-4.4999990463256836,-2.5],"max":[-1.5,1.5,1.5]},{"bufferView":27,"byteOffset":2088,"count":15,"componentType":5126,"type":"VEC3","min":[-2.5,-4.4999990463256836,-2.5],"max":[-1.5,-1.4999997615814209,1.4999990463256836]},{"bufferView":27,"byteOffset":2268,"count":63,"componentType":5126,"type":"VEC3","min":[-2.5,-4.4999990463256836,-2.5],"max":[-2.5,1.5000001192092896,1.5]},{"bufferView":27,"byteOffset":3024,"count":15,"componentType":5126,"type":"VEC3","min":[-2.5,-2.4999997615814209,-2.4999995231628418],"max":[-1.5,1.5000001192092896,1.5]},{"bufferView":27,"byteOffset":3204,"count":24,"componentType":5126,"type":"VEC3","min":[-2.5,-4.4999990463256836,-1.5],"max":[-1.5,1.5,1.5]},{"bufferView":27,"byteOffset":3492,"count":24,"componentType":5126,"type":"VEC3","min":[-2.5,-4.4999990463256836,-2.5],"max":[-1.5,1.5000001192092896,0.5]},{"bufferView":27,"byteOffset":3780,"count":63,"componentType":5126,"type":"VEC3","min":[-2.5,-4.4999990463256836,-2.5],"max":[-2.5,1.5000001192092896,1.5]},{"bufferView":27,"byteOffset":4536,"count":15,"componentType":5126,"type":"VEC3","min":[-2.5,-2.4999997615814209,-2.4999995231628418],"max":[-1.5,1.5000001192092896,1.5]},{"bufferView":27,"byteOffset":4716,"count":15,"componentType":5126,"type":"VEC3","min":[-2.5,-4.4999990463256836,-2.5],"max":[-1.5,-1.4999997615814209,1.4999990463256836]},{"bufferView":28,"byteOffset":0,"count":63,"componentType":5126,"type":"VEC2"},{"bufferView":28,"byteOffset":504,"count":24,"componentType":5126,"type":"VEC2"},{"bufferView":28,"byteOffset":696,"count":24,"componentType":5126,"type":"VEC2"},{"bufferView":28,"byteOffset":888,"count":63,"componentType":5126,"type":"VEC2"},{"bufferView":28,"byteOffset":1392,"count":15,"componentType":5126,"type":"VEC2"},{"bufferView":28,"byteOffset":1512,"count":63,"componentType":5126,"type":"VEC2"},{"bufferView":28,"byteOffset":2016,"count":15,"componentType":5126,"type":"VEC2"},{"bufferView":28,"byteOffset":2136,"count":24,"componentType":5126,"type":"VEC2"},{"bufferView":28,"byteOffset":2328,"count":24,"componentType":5126,"type":"VEC2"},{"bufferView":28,"byteOffset":2520,"count":63,"componentType":5126,"type":"VEC2"},{"bufferView":28,"byteOffset":3024,"count":15,"componentType":5126,"type":"VEC2"},{"bufferView":28,"byteOffset":3144,"count":15,"componentType":5126,"type":"VEC2"},{"bufferView":29,"byteOffset":0,"count":63,"componentType":5125,"type":"SCALAR"},{"bufferView":29,"byteOffset":252,"count":24,"componentType":5125,"type":"SCALAR"},{"bufferView":29,"byteOffset":348,"count":24,"componentType":5125,"type":"SCALAR"},{"bufferView":29,"byteOffset":444,"count":63,"componentType":5125,"type":"SCALAR"},{"bufferView":29,"byteOffset":696,"count":15,"componentType":5125,"type":"SCALAR"},{"bufferView":29,"byteOffset":756,"count":63,"componentType":5125,"type":"SCALAR"},{"bufferView":29,"byteOffset":1008,"count":15,"componentType":5125,"type":"SCALAR"},{"bufferView":29,"byteOffset":1068,"count":24,"componentType":5125,"type":"SCALAR"},{"bufferView":29,"byteOffset":1164,"count":24,"componentType":5125,"type":"SCALAR"},{"bufferView":29,"byteOffset":1260,"count":63,"componentType":5125,"type":"SCALAR"},{"bufferView":29,"byteOffset":1512,"count":15,"componentType":5125,"type":"SCALAR"},{"bufferView":29,"byteOffset":1572,"count":15,"componentType":5125,"type":"SCALAR"}],"bufferViews":[{"buffer":0,"byteOffset":0,"byteLength":2736,"byteStride":12,"target":34962},{"buffer":0,"byteOffset":2736,"byteLength":1824,"byteStride":8,"target":34962},{"buffer":0,"byteOffset":4560,"byteLength":912,"target":34963},{"buffer":0,"byteOffset":5472,"byteLength":432,"byteStride":12,"target":34962},{"buffer":0,"byteOffset":5904,"byteLength":288,"byteStride":8,"target":34962},{"buffer":0,"byteOffset":6192,"byteLength":144,"byteStride":4,"target":34962},{"buffer":0,"byteOffset":6336,"byteLength":288,"target":34963},{"buffer":0,"byteOffset":6624,"byteLength":11664,"byteStride":12,"target":34962},{"buffer":0,"byteOffset":18288,"byteLength":7776,"byteStride":8,"target":34962},{"buffer":0,"byteOffset":26064,"byteLength":3888,"target":34963},{"buffer":0,"byteOffset":29952,"byteLength":192,"byteStride":12,"target":34962},{"buffer":0,"byteOffset":30144,"byteLength":128,"byteStride":8,"target":34962},{"buffer":0,"byteOffset":30272,"byteLength":64,"byteStride":4,"target":34962},{"buffer":0,"byteOffset":30336,"byteLength":144,"target":34963},{"buffer":0,"byteOffset":30480,"byteLength":432,"byteStride":12,"target":34962},{"buffer":0,"byteOffset":30912,"byteLength":288,"byteStride":8,"target":34962},{"buffer":0,"byteOffset":31200,"byteLength":144,"target":34963},{"buffer":0,"byteOffset":31344,"byteLength":6768,"byteStride":12,"target":34962},{"buffer":0,"byteOffset":38112,"byteLength":4512,"byteStride":8,"target":34962},{"buffer":0,"byteOffset":42624,"byteLength":2256,"target":34963},{"buffer":0,"byteOffset":44880,"byteLength":192,"byteStride":12,"target":34962},{"buffer":0,"byteOffset":45072,"byteLength":128,"byteStride":8,"target":34962},{"buffer":0,"byteOffset":45200,"byteLength":64,"byteStride":4,"target":34962},{"buffer":0,"byteOffset":45264,"byteLength":144,"target":34963},{"buffer":0,"byteOffset":45408,"byteLength":192,"byteStride":12,"target":34962},{"buffer":0,"byteOffset":45600,"byteLength":128,"byteStride":8,"target":34962},{"buffer":0,"byteOffset":45728,"byteLength":96,"target":34963},{"buffer":0,"byteOffset":45824,"byteLength":4896,"byteStride":12,"target":34962},{"buffer":0,"byteOffset":50720,"byteLength":3264,"byteStride":8,"target":34962},{"buffer":0,"byteOffset":53984,"byteLength":1632,"target":34963}],"buffers":[{"byteLength":55616,"uri":"mcexport.bin"}]}